<svg xmlns="http://www.w3.org/2000/svg" width="64" height="46" viewBox="0 0 64 46">
<!-- Generated from Sierpiński Arrowhead at iteration 4 with seed 0. -->
<path d="M49.32 43L49.32 40.33L47.01 39L44.7 40.33L42.39 39L42.39 36.33L44.7 35L47.01 36.33L49.32 35L49.32 32.33L47.01 31L47.01 28.33L49.32 27L49.32 24.33L47.01 23L44.7 24.33L44.7 27L42.39 28.33L40.08 27L37.77 28.33L37.77 31L40.08 32.33L40.08 35L37.77 36.33L35.46 35L35.46 32.33L33.15 31L30.85 32.33L28.54 31L28.54 28.33L30.85 27L30.85 24.33L28.54 23L26.23 24.33L26.23 27L23.92 28.33L21.61 27L21.61 24.33L19.3 23L16.99 24.33L14.68 23L14.68 20.33L16.99 19L19.3 20.33L21.61 19L21.61 16.33L23.92 15L26.23 16.33L26.23 19L28.54 20.33L30.85 19L30.85 16.33L28.54 15L28.54 12.33L30.85 11L33.15 12.33L35.46 11L35.46 8.33L37.77 7L40.08 8.33L40.08 11L37.77 12.33L37.77 15L40.08 16.33L42.39 15L44.7 16.33L44.7 19L47.01 20.33L49.32 19L49.32 16.33L47.01 15L47.01 12.33L49.32 11L49.32 8.33L47.01 7L44.7 8.33L42.39 7L42.39 4.33L44.7 3L47.01 4.33L49.32 3" fill="none" stroke="#a78bfa" stroke-width="1.73" stroke-linecap="round" stroke-linejoin="round"/>
</svg>
