<svg xmlns="http://www.w3.org/2000/svg" width="64" height="46" viewBox="0 0 64 46">
<!-- Generated from Spatial Four-Way Tree at iteration 2 with seed 0. -->
<path d="M23.62 21.11L24.11 21.74" fill="none" stroke="#64ac77" stroke-width="2.5" stroke-linecap="round" stroke-linejoin="round"/>
<path d="M32.05 31.46L31.13 29.63" fill="none" stroke="#64af78" stroke-width="2.5" stroke-linecap="round" stroke-linejoin="round"/>
<path d="M34.61 38.15L36.24 43" fill="none" stroke="#64a675" stroke-width="2.5" stroke-linecap="round" stroke-linejoin="round"/>
<path d="M18.03 17.33L12.94 14.18" fill="none" stroke="#61b076" stroke-width="2.5" stroke-linecap="round" stroke-linejoin="round"/>
<path d="M28.39 17.44L33.67 14.39" fill="none" stroke="#61ae75" stroke-width="2.5" stroke-linecap="round" stroke-linejoin="round"/>
<path d="M38.2 29.43L43.43 25.57" fill="none" stroke="#61b076" stroke-width="2.5" stroke-linecap="round" stroke-linejoin="round"/>
<path d="M23.12 20.48L23.62 21.11" fill="none" stroke="#61ab74" stroke-width="2.5" stroke-linecap="round" stroke-linejoin="round"/>
<path d="M32.98 33.3L32.05 31.46" fill="none" stroke="#61ae75" stroke-width="2.5" stroke-linecap="round" stroke-linejoin="round"/>
<path d="M23.62 13.28L24.11 6.08" fill="none" stroke="#61b076" stroke-width="2.5" stroke-linecap="round" stroke-linejoin="round"/>
<path d="M32.98 33.3L34.61 38.15" fill="none" stroke="#60a572" stroke-width="2.5" stroke-linecap="round" stroke-linejoin="round"/>
<path d="M39.8 35.75L46.62 38.2" fill="none" stroke="#61ab74" stroke-width="2.5" stroke-linecap="round" stroke-linejoin="round"/>
<path d="M23.12 20.48L18.03 17.33" fill="none" stroke="#61b076" stroke-width="2.5" stroke-linecap="round" stroke-linejoin="round"/>
<path d="M23.12 20.48L28.39 17.44" fill="none" stroke="#61ae75" stroke-width="2.5" stroke-linecap="round" stroke-linejoin="round"/>
<path d="M32.98 33.3L38.2 29.43" fill="none" stroke="#61b076" stroke-width="2.5" stroke-linecap="round" stroke-linejoin="round"/>
<path d="M23.12 20.48L23.62 13.28" fill="none" stroke="#5daf73" stroke-width="2.5" stroke-linecap="round" stroke-linejoin="round"/>
<path d="M32.98 33.3L39.8 35.75" fill="none" stroke="#5daa71" stroke-width="2.5" stroke-linecap="round" stroke-linejoin="round"/>
<path d="M22.47 24.77L23.12 20.48" fill="none" stroke="#5daf73" stroke-width="2.5" stroke-linecap="round" stroke-linejoin="round"/>
<path d="M28.51 32.65L32.98 33.3" fill="none" stroke="#5daa71" stroke-width="2.5" stroke-linecap="round" stroke-linejoin="round"/>
<path d="M43.88 25.32L47.5 21.55" fill="none" stroke="#5daf73" stroke-width="2.5" stroke-linecap="round" stroke-linejoin="round"/>
<path d="M38.2 14.3L43.43 12.13" fill="none" stroke="#59ab6f" stroke-width="2.5" stroke-linecap="round" stroke-linejoin="round"/>
<path d="M32.05 10.32L31.13 4.17" fill="none" stroke="#59ae70" stroke-width="2.5" stroke-linecap="round" stroke-linejoin="round"/>
<path d="M45.84 32.26L51.4 35.44" fill="none" stroke="#59a66d" stroke-width="2.5" stroke-linecap="round" stroke-linejoin="round"/>
<path d="M21.82 29.06L22.47 24.77" fill="none" stroke="#59ae70" stroke-width="2.5" stroke-linecap="round" stroke-linejoin="round"/>
<path d="M24.03 32.01L28.51 32.65" fill="none" stroke="#59a86e" stroke-width="2.5" stroke-linecap="round" stroke-linejoin="round"/>
<path d="M40.27 29.09L43.88 25.32" fill="none" stroke="#59ae70" stroke-width="2.5" stroke-linecap="round" stroke-linejoin="round"/>
<path d="M32.98 16.47L38.2 14.3" fill="none" stroke="#59ab6f" stroke-width="2.5" stroke-linecap="round" stroke-linejoin="round"/>
<path d="M32.98 16.47L32.05 10.32" fill="none" stroke="#55ad6d" stroke-width="2.5" stroke-linecap="round" stroke-linejoin="round"/>
<path d="M40.27 29.09L45.84 32.26" fill="none" stroke="#55a46a" stroke-width="2.5" stroke-linecap="round" stroke-linejoin="round"/>
<path d="M28.51 22.28L32.98 16.47" fill="none" stroke="#55ad6d" stroke-width="2.5" stroke-linecap="round" stroke-linejoin="round"/>
<path d="M33 30.06L40.27 29.09" fill="none" stroke="#55aa6c" stroke-width="2.5" stroke-linecap="round" stroke-linejoin="round"/>
<path d="M40.27 29.09L45.84 24.43M32.98 16.47L39.8 13.98" fill="none" stroke="#55ad6d" stroke-width="2.5" stroke-linecap="round" stroke-linejoin="round"/>
<path d="M32.98 16.47L34.61 9.73" fill="none" stroke="#55aa6c" stroke-width="2.5" stroke-linecap="round" stroke-linejoin="round"/>
<path d="M40.27 29.09L46.91 31.04M22.01 31.21L21.82 29.06" fill="none" stroke="#55ad6d" stroke-width="2.5" stroke-linecap="round" stroke-linejoin="round"/>
<path d="M22.01 31.21L24.03 32.01" fill="none" stroke="#55a46a" stroke-width="2.5" stroke-linecap="round" stroke-linejoin="round"/>
<path d="M25.73 31.03L33 30.06" fill="none" stroke="#55aa6c" stroke-width="2.5" stroke-linecap="round" stroke-linejoin="round"/>
<path d="M24.03 28.09L28.51 22.28M45.84 24.43L51.4 19.77M39.8 13.98L46.62 11.48" fill="none" stroke="#55ad6d" stroke-width="2.5" stroke-linecap="round" stroke-linejoin="round"/>
<path d="M22.01 31.21L25.73 31.03" fill="none" stroke="#55aa6c" stroke-width="2.5" stroke-linecap="round" stroke-linejoin="round"/>
<path d="M22.01 31.21L24.03 28.09" fill="none" stroke="#55ad6d" stroke-width="2.5" stroke-linecap="round" stroke-linejoin="round"/>
<path d="M34.61 9.73L36.24 3" fill="none" stroke="#51a968" stroke-width="2.5" stroke-linecap="round" stroke-linejoin="round"/>
<path d="M46.91 31.04L53.56 33" fill="none" stroke="#51ac69" stroke-width="2.5" stroke-linecap="round" stroke-linejoin="round"/>
<path d="M16.05 33.81L22.01 31.21M13.08 35.1L16.05 33.81" fill="none" stroke="#51a968" stroke-width="2.5" stroke-linecap="round" stroke-linejoin="round"/>
<path d="M10.44 36.63L13.08 35.1" fill="none" stroke="#4ca865" stroke-width="2.5" stroke-linecap="round" stroke-linejoin="round"/>
</svg>
